<svg id="Layer_1" data-name="Layer 1" xmlns="http://www.w3.org/2000/svg" viewBox="0 0 499.14 121.82"><defs><style>.cls-1{font-size:48px;font-family:HelveticaNeue-Bold, Helvetica Neue;}.cls-1,.cls-4,.cls-5{fill:#fff;}.cls-1,.cls-5{font-weight:700;}.cls-2,.cls-3{fill:none;stroke:#fff;}.cls-3{stroke-width:1.5px;}.cls-5{font-size:54.14px;font-family:GillSans-Bold, Gill Sans;}</style></defs><title>SI_LO</title><text class="cls-1" transform="translate(152.09 41.14)">slow <tspan x="-134.06" y="57.6">immediate</tspan></text><path class="cls-2" d="M386.16,109.22a3.93,3.93,0,1,1-3.92-3.93A3.92,3.92,0,0,1,386.16,109.22Zm0,12.51a3.93,3.93,0,1,1-3.92-3.93A3.92,3.92,0,0,1,386.16,121.73Zm-12.46,0a3.93,3.93,0,1,1-3.93-3.93A3.93,3.93,0,0,1,373.7,121.73Z" transform="translate(11.32 -25.66)"/><path class="cls-3" d="M475.06,112.11c-5.63,0-5.46,13-11.45,13s-5.65-13-11.81-13-5.65,13-11.82,13-6.34-13-12.17-13S422.18,125,416.19,125s-5.82-12.87-12-12.87" transform="translate(11.32 -25.66)"/><path class="cls-4" d="M399.16,84a4.72,4.72,0,1,1-4.72-4.73A4.71,4.71,0,0,1,399.16,84" transform="translate(11.32 -25.66)"/><path class="cls-4" d="M374.49,96.54a4.72,4.72,0,1,1-4.72-4.72,4.72,4.72,0,0,1,4.72,4.72" transform="translate(11.32 -25.66)"/><path class="cls-4" d="M386.83,96.54a4.73,4.73,0,1,1-4.72-4.72,4.72,4.72,0,0,1,4.72,4.72" transform="translate(11.32 -25.66)"/><path class="cls-4" d="M399.16,96.54a4.72,4.72,0,1,1-4.72-4.72,4.72,4.72,0,0,1,4.72,4.72" transform="translate(11.32 -25.66)"/><path class="cls-4" d="M362.19,109.13a4.72,4.72,0,1,1-4.72-4.72,4.72,4.72,0,0,1,4.72,4.72" transform="translate(11.32 -25.66)"/><path class="cls-4" d="M374.49,109.13a4.72,4.72,0,1,1-4.72-4.72,4.72,4.72,0,0,1,4.72,4.72" transform="translate(11.32 -25.66)"/><path class="cls-4" d="M399.16,109.13a4.72,4.72,0,1,1-4.72-4.72,4.72,4.72,0,0,1,4.72,4.72" transform="translate(11.32 -25.66)"/><path class="cls-4" d="M362.19,121.73a4.72,4.72,0,1,1-4.72-4.73,4.72,4.72,0,0,1,4.72,4.73" transform="translate(11.32 -25.66)"/><path class="cls-4" d="M349.86,121.73a4.73,4.73,0,1,1-4.73-4.73,4.72,4.72,0,0,1,4.73,4.73" transform="translate(11.32 -25.66)"/><path class="cls-4" d="M399.16,121.73a4.72,4.72,0,1,1-4.72-4.73,4.72,4.72,0,0,1,4.72,4.73" transform="translate(11.32 -25.66)"/><polygon class="cls-4" points="416.86 58.15 416.86 66.16 419.61 66.16 419.61 67.48 415.45 67.48 415.45 58.15 416.86 58.15"/><rect class="cls-4" x="421.19" y="58.15" width="1.41" height="9.34"/><polygon class="cls-4" points="425.56 58.15 428.15 64.62 430.77 58.15 432.31 58.15 428.12 68.19 424.02 58.15 425.56 58.15"/><rect class="cls-4" x="433.72" y="58.15" width="1.41" height="9.34"/><polygon class="cls-4" points="437.62 67.48 437.62 57.51 444.43 64.63 444.43 58.15 445.84 58.15 445.84 68.05 439.03 60.95 439.03 67.48 437.62 67.48"/><path class="cls-4" d="M441.91,88.28h3.86v.31a6.2,6.2,0,0,1-.25,1.86,3.85,3.85,0,0,1-.81,1.4,4.21,4.21,0,0,1-3.31,1.46A4.57,4.57,0,0,1,438,91.9a4.88,4.88,0,0,1,5.53-7.84,5.89,5.89,0,0,1,1.78,1.45l-1,1a3.42,3.42,0,0,0-2.8-1.54,3.33,3.33,0,0,0-2.49,1,3.41,3.41,0,0,0-1,2.52,3.53,3.53,0,0,0,3.39,3.5,2.79,2.79,0,0,0,1.87-.7,2.48,2.48,0,0,0,.93-1.69h-2.33Z" transform="translate(11.32 -25.66)"/><path class="cls-4" d="M405.09,101.34a3.48,3.48,0,0,0,3.43,3.54,3.41,3.41,0,0,0,2.48-1,3.46,3.46,0,0,0,1-2.51,3.36,3.36,0,0,0-1-2.49,3.46,3.46,0,0,0-5.92,2.47m-1.43,0a4.58,4.58,0,0,1,1.45-3.38,4.74,4.74,0,0,1,3.46-1.41,4.87,4.87,0,0,1,4.86,4.85A4.59,4.59,0,0,1,412,104.8a4.93,4.93,0,0,1-6.74.15,4.57,4.57,0,0,1-1.59-3.63" transform="translate(11.32 -25.66)"/><path class="cls-4" d="M416.37,104.71h.86a2.18,2.18,0,0,0,1.41-.37,1.32,1.32,0,0,0,.47-1,1.34,1.34,0,0,0-.45-1,2.44,2.44,0,0,0-1.59-.4h-.7Zm0-4h.44a1.65,1.65,0,0,0,1.15-.34,1.35,1.35,0,0,0,.36-1,1.29,1.29,0,0,0-.37-1,1.57,1.57,0,0,0-1.09-.34h-.49ZM415,106V96.7h1.41a6.53,6.53,0,0,1,1.49.14,2.38,2.38,0,0,1,.95.49,2.61,2.61,0,0,1,.63.89,2.81,2.81,0,0,1,.23,1.09,2.17,2.17,0,0,1-.77,1.69,2.37,2.37,0,0,1,1.18.9,2.52,2.52,0,0,1,.43,1.47,2.72,2.72,0,0,1-1.82,2.5,6.44,6.44,0,0,1-1.59.17Z" transform="translate(11.32 -25.66)"/><path class="cls-4" d="M427.31,98.08l-1.14.68a2.16,2.16,0,0,0-.6-.73,1.47,1.47,0,0,0-.79-.19,1.38,1.38,0,0,0-1,.34,1,1,0,0,0-.39.82c0,.46.34.82,1,1.09l.93.39a3.8,3.8,0,0,1,1.67,1.13,2.5,2.5,0,0,1,.53,1.62,2.88,2.88,0,0,1-.86,2.13,3,3,0,0,1-2.15.85,2.86,2.86,0,0,1-2-.72,3.36,3.36,0,0,1-1-2l1.42-.32a2.42,2.42,0,0,0,.34,1.13,1.47,1.47,0,0,0,1.27.61,1.53,1.53,0,0,0,1.1-.43,1.57,1.57,0,0,0,.44-1.13,1.59,1.59,0,0,0-.08-.5,1.44,1.44,0,0,0-.23-.42,2.51,2.51,0,0,0-.42-.35,4.15,4.15,0,0,0-.6-.32l-.9-.37C422.63,100.82,422,100,422,99a2.22,2.22,0,0,1,.81-1.75,2.93,2.93,0,0,1,2-.71,2.79,2.79,0,0,1,2.52,1.56" transform="translate(11.32 -25.66)"/><polygon class="cls-4" points="445.48 72.36 441.74 72.36 441.74 74.61 445.37 74.61 445.37 75.93 441.74 75.93 441.74 79.05 445.48 79.05 445.48 80.38 440.33 80.38 440.33 71.04 445.48 71.04 445.48 72.36"/><path class="cls-4" d="M437.18,101h.44c1.34,0,2-.5,2-1.53S439,98,437.68,98h-.5Zm1.75,1.08,2.9,4H440.1l-2.67-3.83h-.25V106h-1.41V96.7h1.65a4.11,4.11,0,0,1,2.67.69,2.55,2.55,0,0,1,.91,2,2.62,2.62,0,0,1-.57,1.7,2.5,2.5,0,0,1-1.5.92" transform="translate(11.32 -25.66)"/><polygon class="cls-4" points="454.43 71.04 457.02 77.52 459.64 71.04 461.19 71.04 456.99 81.09 452.9 71.04 454.43 71.04"/><path class="cls-4" d="M454.91,102.45l-1.39-3.18-1.45,3.18Zm.57,1.32h-4L450.44,106h-1.51l4.62-9.93L458,106h-1.54Z" transform="translate(11.32 -25.66)"/><polygon class="cls-4" points="472.3 72.36 472.3 80.38 470.89 80.38 470.89 72.36 468.75 72.36 468.75 71.04 474.44 71.04 474.44 72.36 472.3 72.36"/><path class="cls-4" d="M464.8,101.34a3.48,3.48,0,0,0,3.42,3.54,3.38,3.38,0,0,0,2.48-1,3.63,3.63,0,0,0,0-5,3.46,3.46,0,0,0-5.92,2.47m-1.43,0a4.54,4.54,0,0,1,1.45-3.38,4.72,4.72,0,0,1,3.46-1.41,4.83,4.83,0,0,1,3.42,8.27A4.93,4.93,0,0,1,465,105a4.57,4.57,0,0,1-1.59-3.63" transform="translate(11.32 -25.66)"/><path class="cls-4" d="M476.07,101h.46c1.33,0,2-.5,2-1.53S477.88,98,476.58,98h-.51Zm1.76,1.08,2.89,4H479l-2.67-3.83h-.26V106h-1.41V96.7h1.66a4.13,4.13,0,0,1,2.67.69,2.55,2.55,0,0,1,.91,2,2.62,2.62,0,0,1-.57,1.7,2.56,2.56,0,0,1-1.5.92" transform="translate(11.32 -25.66)"/><polygon class="cls-4" points="494.67 76.35 491.62 71.04 493.25 71.04 495.37 74.77 497.52 71.04 499.14 71.04 496.08 76.35 496.08 80.38 494.67 80.38 494.67 76.35"/><path class="cls-4" d="M394.25,56.41s7.84,20.3,0,20.26,0-20.26,0-20.26" transform="translate(11.32 -25.66)"/><path class="cls-4" d="M395.06,56.42s19.88,8.81,14.33,14.33-14.33-14.33-14.33-14.33" transform="translate(11.32 -25.66)"/><path class="cls-4" d="M395.07,55.67s20.29-7.83,20.26,0-20.26,0-20.26,0" transform="translate(11.32 -25.66)"/><path class="cls-4" d="M395.06,54.82S403.87,35,409.39,40.5s-14.33,14.32-14.33,14.32" transform="translate(11.32 -25.66)"/><path class="cls-4" d="M394.36,54.83s-7.83-20.28,0-20.28,0,20.28,0,20.28" transform="translate(11.32 -25.66)"/><path class="cls-4" d="M393.48,54.82S373.61,46,379.16,40.5s14.32,14.32,14.32,14.32" transform="translate(11.32 -25.66)"/><path class="cls-4" d="M393.5,55.67s-20.28,7.83-20.27,0,20.27,0,20.27,0" transform="translate(11.32 -25.66)"/><path class="cls-4" d="M393.48,56.42s-8.8,19.88-14.32,14.33,14.32-14.33,14.32-14.33" transform="translate(11.32 -25.66)"/><path class="cls-4" d="M399.15,55.68a4.83,4.83,0,1,1-4.82-4.83,4.81,4.81,0,0,1,4.82,4.83" transform="translate(11.32 -25.66)"/><text class="cls-5" transform="translate(287.88 77.64)">X</text></svg>