<?xml version="1.0" encoding="utf-8"?>
<!-- Generator: Adobe Illustrator 24.1.2, SVG Export Plug-In . SVG Version: 6.00 Build 0)  -->
<svg version="1.1" id="Layer_1" xmlns="http://www.w3.org/2000/svg" xmlns:xlink="http://www.w3.org/1999/xlink" x="0px" y="0px"
	 viewBox="0 0 100 100" style="enable-background:new 0 0 100 100;" xml:space="preserve">
<style type="text/css">
	.st0{fill:#FFFFFF;}
</style>
<g>
	<path class="st0" d="M50,7.8C26.7,7.8,7.8,26.7,7.8,50S26.7,92.2,50,92.2S92.2,73.3,92.2,50l0,0C92.2,26.7,73.3,7.8,50,7.8z
		 M50,87.5c-20.7,0-37.5-16.8-37.5-37.5S29.3,12.5,50,12.5S87.5,29.3,87.5,50l0,0C87.5,70.7,70.7,87.5,50,87.5z M65.5,51.5
		L40.7,65.3c-0.8,0.5-1.9,0.2-2.3-0.7c-0.1-0.3-0.2-0.5-0.2-0.8V36.2c0-0.9,0.8-1.7,1.7-1.7c0.3,0,0.6,0.1,0.8,0.2l24.8,13.8
		c0.8,0.5,1.1,1.5,0.7,2.3C66,51.1,65.8,51.3,65.5,51.5z"/>
</g>
</svg>
