<?xml version="1.0" encoding="utf-8"?>
<!-- Generator: Adobe Illustrator 24.1.0, SVG Export Plug-In . SVG Version: 6.00 Build 0)  -->
<svg version="1.1" id="Layer_1" xmlns="http://www.w3.org/2000/svg" xmlns:xlink="http://www.w3.org/1999/xlink" x="0px" y="0px"
	 viewBox="0 0 24 24" style="enable-background:new 0 0 24 24;" xml:space="preserve">
<style type="text/css">
	.st0{fill:#FFFFFF;}
</style>
<path class="st0" d="M3.6,3.6C3.2,4,3.2,4.7,3.6,5l3.7,3.7L7,9H4c-0.5,0-1,0.4-1,1v4c0,0.6,0.5,1,1,1h3l3.3,3.3
	c0.6,0.6,1.7,0.2,1.7-0.7v-4.2l4.2,4.2c-0.5,0.4-1,0.7-1.6,0.9C14.2,18.7,14,19,14,19.4c0,0.7,0.7,1.2,1.4,0.9
	c0.8-0.3,1.6-0.8,2.2-1.3l1.3,1.3c0.4,0.4,1,0.4,1.4,0s0.4-1,0-1.4L5.1,3.6C4.7,3.2,4,3.2,3.6,3.6z M19,12c0,0.8-0.1,1.6-0.4,2.3
	l1.5,1.5c0.6-1.2,0.9-2.5,0.9-3.9c0-3.8-2.4-7.1-5.8-8.4C14.6,3.4,14,3.8,14,4.5v0.2c0,0.4,0.2,0.7,0.6,0.8C17.2,6.5,19,9.1,19,12z
	 M10.3,5.7l-0.2,0.2L12,7.8V6.4C12,5.5,10.9,5.1,10.3,5.7z M16.5,12c0-1.8-1-3.3-2.5-4v1.8l2.5,2.5C16.5,12.2,16.5,12.1,16.5,12z"/>
</svg>
