<?xml version="1.0" encoding="utf-8"?>
<!-- Generator: Adobe Illustrator 24.1.0, SVG Export Plug-In . SVG Version: 6.00 Build 0)  -->
<svg version="1.1" id="Layer_1" xmlns="http://www.w3.org/2000/svg" xmlns:xlink="http://www.w3.org/1999/xlink" x="0px" y="0px"
	 viewBox="0 0 24 24" style="enable-background:new 0 0 24 24;" xml:space="preserve">
<style type="text/css">
	.st0{fill:#FFFFFF;}
</style>
<path class="st0" d="M3,10v4c0,0.6,0.5,1,1,1h3l3.3,3.3c0.6,0.6,1.7,0.2,1.7-0.7V6.4c0-0.9-1.1-1.3-1.7-0.7L7,9H4C3.5,9,3,9.4,3,10z
	 M16.5,12c0-1.8-1-3.3-2.5-4V16C15.5,15.3,16.5,13.8,16.5,12z M14,4.4v0.2c0,0.4,0.2,0.7,0.6,0.8c2.6,1,4.4,3.6,4.4,6.5
	s-1.8,5.5-4.4,6.5C14.2,18.6,14,19,14,19.4v0.2c0,0.6,0.6,1.1,1.2,0.9c3.4-1.3,5.8-4.6,5.8-8.4s-2.4-7.1-5.8-8.4
	C14.6,3.4,14,3.8,14,4.4z"/>
</svg>
